HIERARCHY
ROOT Hips
{
  OFFSET 3.13124 94.3669 -3.18751
  CHANNELS  6 Xposition Yposition Zposition Zrotation Xrotation Yrotation
  JOINT LeftUpLeg
  {
    OFFSET 8.64259 1.95398 -2.38835
    CHANNELS 3 Zrotation Xrotation Yrotation
    JOINT LeftLeg
    {
      OFFSET 43.7702 0 0
      CHANNELS 3 Zrotation Xrotation Yrotation
      JOINT LeftFoot
      {
        OFFSET 40.6238 0 0
        CHANNELS 3 Zrotation Xrotation Yrotation
        JOINT LeftToeBase
        {
          OFFSET 12.7242 0 0
          CHANNELS 3 Zrotation Xrotation Yrotation
          End Site
          {
            OFFSET 0 0 0
          }
        }
      }
    }
  }
  JOINT RightUpLeg
  {
    OFFSET -8.2249 1.95398 -2.59336
    CHANNELS 3 Zrotation Xrotation Yrotation
    JOINT RightLeg
    {
      OFFSET 43.5653 0 0
      CHANNELS 3 Zrotation Xrotation Yrotation
      JOINT RightFoot
      {
        OFFSET 40.6238 0 0
        CHANNELS 3 Zrotation Xrotation Yrotation
        JOINT RightToeBase
        {
          OFFSET 12.7242 0 0
          CHANNELS 3 Zrotation Xrotation Yrotation
          End Site
          {
            OFFSET 0 0 0
          }
        }
      }
    }
  }
  JOINT Spine
  {
    OFFSET 0.165834 0.87714 6.61349
    CHANNELS 3 Zrotation Xrotation Yrotation
    JOINT Spine1
    {
      OFFSET 7.38962 1.71661e-005 0
      CHANNELS 3 Zrotation Xrotation Yrotation
      JOINT Spine2
      {
        OFFSET 11.9445 1.14441e-005 0
        CHANNELS 3 Zrotation Xrotation Yrotation
        JOINT Spine3
        {
          OFFSET 14.7254 4.19617e-005 0
          CHANNELS 3 Zrotation Xrotation Yrotation
          JOINT Spine4
          {
            OFFSET 10.9679 0 0
            CHANNELS 3 Zrotation Xrotation Yrotation
            JOINT RightShoulder
            {
              OFFSET 2.46616 -1.6653 3.69651
              CHANNELS 3 Zrotation Xrotation Yrotation
              JOINT RightArm
              {
                OFFSET 13.0012 0 0
                CHANNELS 3 Zrotation Xrotation Yrotation
                JOINT RightForeArm
                {
                  OFFSET 28.7848 1.52588e-005 0
                  CHANNELS 3 Zrotation Xrotation Yrotation
                  JOINT RightHand
                  {
                    OFFSET 26.5688 1.52588e-005 0
                    CHANNELS 3 Zrotation Xrotation Yrotation
                    End Site
                    {
                      OFFSET 0 0 0
                    }
                  }
                }
              }
            }
            JOINT LeftShoulder
            {
              OFFSET 2.38034 -1.29275 -3.75231
              CHANNELS 3 Zrotation Xrotation Yrotation
              JOINT LeftArm
              {
                OFFSET 16.3182 6.10352e-005 0
                CHANNELS 3 Zrotation Xrotation Yrotation
                JOINT LeftForeArm
                {
                  OFFSET 27.0901 0 0
                  CHANNELS 3 Zrotation Xrotation Yrotation
                  JOINT LeftHand
                  {
                    OFFSET 24.5451 1.52588e-005 0
                    CHANNELS 3 Zrotation Xrotation Yrotation
                    End Site
                    {
                      OFFSET 0 0 0
                    }
                  }
                }
              }
            }
            JOINT Neck
            {
              OFFSET 5.0226 -0.0266342 0
              CHANNELS 3 Zrotation Xrotation Yrotation
              JOINT Head
              {
                OFFSET 6.69363 2.86102e-005 0
                CHANNELS 3 Zrotation Xrotation Yrotation
                End Site
                {
                  OFFSET 0 0 0
                }
              }
            }
          }
        }
      }
    }
  }
}
MOTION
Frames:	18
Frame Time:	0.0333333
-99.6465 112.152 -93.567 -13.0073 -82.7378 -12.1126 -176.725 11.7502 101.253 -24.8126 0.259274 0.175791 3.53239 -9.07711 -18.6018 28.7808 4.6578e-006 6.19961e-006 -179.228 19.2826 80.3429 -50.7184 5.3633 -0.182817 9.1057 15.1394 25.1596 28.7808 1.43812e-005 2.43346e-005 0.597034 5.2261 -89.0939 16.425 1.21321 -0.152588 4.75461 1.20532 -0.205846 -17.785 1.20297 0.219139 2.22766 1.20297 0.219138 100.797 -9.56667 -86.9176 46.392 69.5834 -78.2521 -2.44385 -0.493039 -102.711 -25.7251 -3.85303 11.8947 -78.4117 -29.8641 95.8128 -5.51542 -62.6908 -54.4992 -47.7191 -2.94792 -92.3425 24.5977 -11.0229 -47.9286 -20.3063 4.03577 7.87654 -24.9998 2.78805 8.04465 
-100.276 112.237 -93.8258 29.2798 -87.2455 29.9163 177.561 21.2348 105.14 -64.7887 2.92901 1.04547 1.35349 -6.36073 -14.9657 28.7808 4.6578e-006 6.19961e-006 -175.612 23.5618 78.6001 -88.6848 16.9107 -0.1892 22.7236 15.4355 19.6629 28.7808 1.43812e-005 2.43346e-005 0.447197 5.73391 -89.668 15.4049 0.694118 0.19084 3.73414 0.701844 0.160102 -18.8021 0.604665 0.390636 1.21058 0.604667 0.390637 101.209 3.67014 -85.8476 -12.8659 70.7381 -21.5622 3.84274 2.7336 -69.993 -27.2864 0.483654 -6.04554 -78.5102 -18.1359 95.76 -4.32087 -62.5012 -56.1321 -38.7788 -17.1217 -74.6496 27.5697 -11.0177 -43.7896 -24.5694 4.23228 6.01403 -25.3488 2.54156 11.0239 
-100.922 111.362 -94.1569 131.291 -84.7603 131.878 170.544 23.0654 114.18 -92.7357 30.2537 3.30273 -8.55858 -14.5392 -32.0503 28.7808 4.6578e-006 6.19961e-006 -172.371 18.4859 76.8729 -121.852 9.45574 -1.33643 51.0233 24.8559 18.8355 28.7808 1.43812e-005 2.43346e-005 0.171527 6.3866 -90.2235 14.0938 0.00919205 0.264608 2.42287 0.0208369 0.263936 -20.1121 -0.070751 0.255145 -0.0994551 -0.0707597 0.25513 101.464 18.5706 -92.1979 -33.7061 42.8057 -20.7731 -3.03685 23.1953 -3.21485 -26.091 11.3556 -53.5128 -79.3292 -0.105637 90.5356 3.44747 -59.075 -42.7769 -25.7151 -27.7546 -48.7996 20.9467 -9.23552 -46.2283 -30.8712 3.27358 7.01039 -20.3091 2.51463 11.391 
-101.863 112.504 -94.2463 149.696 -82.2314 150.382 170.525 18.184 116.311 90.0163 51.7724 178.186 -38.8972 -18.9076 -101.902 28.7808 4.6578e-006 6.19961e-006 -166.831 0.13655 69.4286 -145.214 -34.8106 -5.00072 106.122 16.4544 1.66741 28.7808 1.43812e-005 2.43346e-005 0.27074 6.90928 -90.268 13.0457 -0.560399 0.0270866 1.37485 -0.558664 0.0517199 -21.1613 -0.542639 -0.1426 -1.14863 -0.542635 -0.142595 102.239 27.5205 -91.8874 -21.8433 39.9314 -26.0712 -2.09363 25.8493 -5.32116 -26.9581 8.10154 -38.6326 -79.6114 4.47793 89.1619 4.52318 -60.8904 -47.4779 3.54303 11.3892 -17.9475 22.4047 -2.59148 -16.0648 -31.542 2.7679 6.06807 -17.8861 1.62654 15.1895 
-101.281 111.494 -94.9478 150.956 -81.7672 152.859 167.815 19.8844 113.891 73.6546 74.2106 172.808 -56.1134 1.45929 -102.71 28.7808 4.6578e-006 6.19961e-006 -159.161 -7.20014 59.4843 -155.533 -62.2743 -9.88683 111.613 -5.41141 -1.18867 28.7808 1.43812e-005 2.43346e-005 -0.290197 7.23693 -90.9659 12.4074 -0.595357 -0.331828 0.736531 -0.609386 -0.305306 -21.799 -0.46811 -0.495421 -1.78637 -0.468109 -0.495419 102.401 28.9011 -94.7108 -19.6195 39.5432 -28.2207 -1.09541 41.2471 -5.96719 -24.2572 1.93162 -14.7617 -80.2233 0.421621 87.8058 0.635655 -62.0398 -55.8203 1.66839 7.53999 -13.4189 30.4316 -3.93811 -17.3959 -26.6687 3.57651 4.886 -20.3908 1.34375 17.3307 
-101.604 110.041 -96.8836 134.65 -83.7851 136.286 168.938 32.252 108.21 -135.4 72.0747 13.0219 -57.0856 5.00728 -82.1202 28.7808 4.6578e-006 6.19961e-006 -156.977 19.2237 60.054 -142.688 -41.4262 -5.57673 86.1378 14.8517 4.64418 28.7808 1.43812e-005 2.43346e-005 -0.0450617 7.20018 -90.7821 12.4746 -0.413311 -0.564171 0.803589 -0.437732 -0.545444 -21.7308 -0.224655 -0.6623 -1.71814 -0.22465 -0.662305 102.149 26.53 -95.9159 -16.3371 38.9384 -31.6081 -0.709477 45.7499 -6.25577 -29.4526 3.43684 -18.2665 -81.5195 -8.41838 86.3271 10.4747 -60.9926 -47.6079 1.43259 17.4789 -19.1617 30.139 -3.94413 -17.5393 -18.2153 4.60975 5.20238 -27.5044 1.19525 15.8666 
-102.029 109.147 -97.3484 120.479 -83.094 120.892 172.212 39.3839 104.102 -121.034 73.7052 13.5584 -47.1491 -6.1719 -85.515 28.7808 4.6578e-006 6.19961e-006 -162.972 33.3935 64.9845 -121.121 -20.5405 -3.24586 52.5632 17.8589 12.8951 28.7808 1.43812e-005 2.43346e-005 -0.00252694 7.21915 -90.1976 12.4307 -0.358002 -0.209818 0.759844 -0.366883 -0.193858 -21.7755 -0.278388 -0.307711 -1.76281 -0.278394 -0.307712 99.606 11.2747 -96.5118 -15.5531 40.9202 -37.9237 -0.891558 43.7252 -6.10893 -33.4993 9.54484 -36.9952 -84.3638 -11.4832 79.1788 10.0458 -59.1463 -43.5934 3.44195 26.876 -15.4541 27.6904 -4.14352 -19.4037 -16.3518 4.25195 -1.6138 -28.1754 -0.682585 21.1628 
-102.2 107.987 -97.2106 122.827 -81.7419 122.822 174.673 42.5589 100.774 -101.1 50.5588 5.80596 -25.9189 -12.1685 -50.7647 28.7808 4.6578e-006 6.19961e-006 -171.553 34.2586 72.743 -94.9113 -1.14775 -1.43326 29.9203 6.55484 8.19604 28.7808 1.43812e-005 2.43346e-005 -0.188475 7.51897 -90.4091 11.8414 -0.535752 0.28511 0.170464 -0.522676 0.308405 -22.3655 -0.596666 0.11091 -2.35285 -0.596668 0.110901 95.028 -13.6233 -102.429 -16.4164 46.4583 -49.6786 4.20428 71.2526 -10.6459 -14.1217 8.3007 -67.1273 -87.6837 -18.8033 73.883 10.0506 -59.6795 -38.1746 4.14761 29.7629 -12.7936 31.5114 -2.31654 -11.6458 -15.0789 4.08642 -9.33484 -26.721 -2.42878 29.2908 
-102.425 107.077 -96.76 119.03 -81.8532 119.041 177.091 37.5572 97.9591 -81.6954 16.6161 2.31186 5.89484 -13.4071 -24.6044 28.7808 4.6578e-006 6.19961e-006 -176.462 29.0374 74.9033 -67.5678 -10.0207 -1.32158 24.1339 8.40511 11.2318 28.7808 1.43812e-005 2.43346e-005 -0.157226 7.51523 -90.9227 11.8539 -0.504036 0.199646 0.183082 -0.494766 0.221628 -22.3529 -0.54074 0.0389228 -2.3402 -0.540741 0.0389201 93.6478 -24.2243 -101.192 -11.5325 44.6201 -53.1251 165.931 69.1922 -171.498 2.83539 -2.01272 -57.4634 -89.8705 -32.6427 74.4417 7.84934 -57.2832 -35.7966 6.18312 33.6628 -13.5421 30.5939 -3.94426 -17.3762 -10.9984 4.81211 -3.80398 -29.1057 -1.11541 24.953 
-102.991 106.04 -95.8142 99.1902 -83.292 98.3267 -179.745 24.1094 93.0087 -47.061 -9.80097 -0.100573 36.0184 -7.69234 -8.22199 28.7808 4.6578e-006 6.19961e-006 179.72 23.0838 76.9858 -40.4519 -11.2962 -0.918241 21.6191 11.7286 15.7992 28.7808 1.43812e-005 2.43346e-005 -0.251058 7.159 -90.0266 12.555 -0.491301 -0.0301851 0.884172 -0.492155 -0.00854719 -21.6516 -0.459523 -0.176454 -1.639 -0.459514 -0.176447 94.859 -32.0805 -96.5318 6.67069 40.1185 -45.4355 129.039 42.3043 -124.494 19.0824 -12.3319 -67.0814 -90.1184 -45.6085 77.5697 4.89496 -53.6215 -31.6763 11.527 40.2979 -17.5512 23.5787 -3.78936 -20.4291 -9.08 6.39273 2.75423 -28.5758 1.38451 20.614 
-103.832 102.684 -94.7772 57.7416 -82.4386 57.0366 -178.25 15.8392 94.3909 -11.9575 -10.1247 -0.565033 22.7668 -6.72155 -9.82428 28.7808 4.6578e-006 6.19961e-006 178.601 23.5109 79.2104 -26.1297 -16.153 -0.978711 12.8701 11.5297 18.3343 28.7808 1.43812e-005 2.43346e-005 -0.389553 6.68564 -89.4894 13.4986 -0.458299 -0.318226 1.82773 -0.471863 -0.297765 -20.7075 -0.341477 -0.441257 -0.694866 -0.341474 -0.441262 95.6349 -44.7536 -92.8386 10.6083 39.916 -38.1297 126.016 27.6703 -113.761 -0.253124 0.332872 -41.4575 -88.886 -56.1508 81.5358 5.88887 -48.2925 -23.895 4.59354 29.7706 -22.1492 30.9271 0.0348722 -3.88931 -3.20756 8.10561 5.25089 -27.0829 3.21299 19.5687 
-104.623 95.9651 -94.3105 29.9611 -77.7476 30.4077 -179.633 33.1475 97.634 -28.9731 -0.0413115 0.19993 19.6428 -9.94449 -14.4624 28.7808 4.6578e-006 6.19961e-006 179.818 31.5658 82.2829 -32.1637 -5.12116 -0.484949 19.2272 9.39408 13.6102 28.7808 1.43812e-005 2.43346e-005 -0.189156 6.37649 -90.0833 14.119 -0.403431 -0.335584 2.44811 -0.417799 -0.317506 -20.087 -0.283923 -0.441312 -0.0743412 -0.283922 -0.441317 96.1582 -57.1122 -90.5416 11.1131 40.6995 -26.9487 142.354 12.9308 -111.287 35.8118 -9.23885 -31.7732 -84.6547 -64.6817 88.3642 3.78701 -46.421 -23.9751 4.85277 36.0316 -17.8709 28.2041 -2.26357 -12.2907 20.2927 11.3729 1.75869 -38.8433 4.0747 19.867 
-105.698 87.7186 -94.462 30.014 -76.9876 30.8647 179.078 38.2565 96.888 -46.964 -8.4949 -0.0586453 54.7872 -13.4754 -9.54689 28.7808 4.6578e-006 6.19961e-006 -178.778 38.9835 83.7398 -51.922 2.70301 -0.310681 45.0455 9.06064 7.91624 28.7808 1.43812e-005 2.43346e-005 -0.253943 6.76067 -89.8433 13.3517 -0.373391 -0.167357 1.68079 -0.380409 -0.150777 -20.8546 -0.305833 -0.271842 -0.841944 -0.305842 -0.271852 97.5927 -64.1467 -87.9718 10.3174 41.4375 -17.8533 151.619 6.64792 -107.237 16.6286 -1.29124 -13.5208 -83.9454 -65.5215 89.3417 -2.73374 -44.0371 -24.5898 2.53776 37.2633 -11.1324 28.4476 -3.32 -16.0488 40.9362 11.7733 -3.70169 -47.605 4.53846 20.6171 
-106.463 78.3997 -94.8345 58.5346 -80.9812 59.9266 178.211 39.5545 97.0841 -64.4421 -12.164 0.0885934 78.0228 -9.38739 -3.5141 28.7808 4.6578e-006 6.19961e-006 -178.901 39.7283 85.7575 -70.0062 8.93251 -0.283079 64.5341 7.24997 4.09137 28.7808 1.43812e-005 2.43346e-005 -0.257532 7.81784 -89.9762 11.2361 -0.517143 -0.363739 -0.434752 -0.532657 -0.34063 -22.97 -0.383921 -0.502344 -2.95737 -0.383923 -0.502346 100.039 -53.9298 -85.1395 17.8731 27.6581 -7.54327 176.744 -0.405907 -105.414 23.3097 -7.34791 -39.3004 -84.1817 -58.9327 88.4318 -15.888 -35.2341 -21.3918 2.69332 31.7215 -13.1226 28.5121 -4.12151 -18.8783 44.3701 13.2833 -2.49006 -43.4907 6.33924 20.1826 
-106.906 75.0638 -95.0274 60.2015 -83.2114 62.4134 176.207 43.2302 99.9269 -74.1576 -12.4145 0.32748 80.0206 -10.8947 -3.90865 28.7808 4.6578e-006 6.19961e-006 179.609 41.0082 89.2225 -74.6909 14.9029 -0.0175361 70.6283 2.35964 1.02918 28.7808 1.43812e-005 2.43346e-005 -0.117176 8.06778 -90.2924 10.7362 -0.401219 -0.567714 -0.934784 -0.425821 -0.549516 -23.4691 -0.212049 -0.662039 -3.45644 -0.212054 -0.662048 98.3014 -54.1906 -87.6905 20.7526 21.7924 -0.653068 -160.028 -7.52726 -108.6 36.9342 -7.40524 -26.6027 -90.0185 -63.6986 81.3022 -21.6075 -31.5517 -23.5269 5.24993 34.1353 -14.8914 23.6435 -2.94694 -16.7312 40.7194 14.7232 -1.12795 -35.9187 8.13733 21.1836 
-106.913 74.1124 -94.5093 57.8943 -84.5077 59.6816 176.318 43.1642 99.4813 -76.0642 -14.3389 0.258237 81.7106 -10.5375 -3.53922 28.7808 4.6578e-006 6.19961e-006 179.657 41.7721 89.0918 -77.3067 14.5505 -0.101936 71.7076 1.19312 0.424171 28.7808 1.43812e-005 2.43346e-005 -0.409936 8.19755 -90.1691 10.4767 -0.921059 -0.345452 -1.194 -0.935363 -0.304586 -23.7308 -0.77466 -0.606313 -3.71812 -0.774654 -0.606311 97.9777 -54.4023 -88.1518 21.2727 19.1165 -5.07479 -140.75 -29.2792 -120.093 22.682 -7.12278 -38.4866 -94.8478 -64.6856 75.3069 -28.2348 -25.5999 -26.3601 5.19777 33.8831 -16.9922 28.9014 -2.4516 -12.7677 40.5633 16.5351 -2.83989 -34.197 10.0831 24.6881 
-106.755 75.6542 -94.4996 45.132 -85.8336 45.3895 177.626 40.357 97.6234 -71.528 -14.6259 0.114464 81.0456 -10.0185 -3.42517 28.7808 4.6578e-006 6.19961e-006 -179.651 41.2733 87.6688 -75.0189 15.0516 -0.0215214 69.0878 1.44881 0.651994 28.7808 1.43812e-005 2.43346e-005 -0.682394 8.09132 -89.9659 10.6871 -1.35109 -0.158149 -0.983108 -1.35675 -0.09854 -23.5231 -1.24109 -0.556955 -3.51049 -1.24109 -0.556965 98.6755 -50.7876 -87.364 25.249 15.2889 -2.01892 -108.317 -47.4082 -103.448 35.057 -7.48759 -28.2095 -99.554 -64.7704 69.3739 -35.3047 -18.2652 -33.2396 5.53476 38.1548 -14.0603 27.6108 -3.07815 -15.5405 35.8863 20.2029 1.36109 -31.8071 12.5191 23.8942 
-106.582 79.5963 -94.2449 57.641 -87.6267 56.0304 179.086 33.7413 95.8123 -62.4497 -11.8121 0.0588673 76.0057 -9.52826 -3.86825 28.7808 4.6578e-006 6.19961e-006 -178.822 36.9769 85.2981 -68.9509 13.2679 -0.00489015 62.5317 2.80028 1.71824 28.7808 1.43812e-005 2.43346e-005 -0.961043 8.12796 -89.713 10.6086 -1.7972 0.0259836 -1.06114 -1.79432 0.10508 -23.6057 -1.7219 -0.515516 -3.59302 -1.7219 -0.515511 99.85 -47.6591 -85.7074 28.2099 13.3339 2.08373 -70.062 -46.1699 -75.2029 50.6101 0.885774 -2.88961 -101.172 -64.8901 67.377 -39.4625 -8.90573 -40.6213 7.49262 37.2979 -15.262 4.79757 -0.9303 -17.541 31.5364 24.4113 8.02487 -31.1584 14.9929 21.1586 
